<svg width="16" height="16" viewBox="0 0 16 16" fill="none" xmlns="http://www.w3.org/2000/svg">
<path d="M10.6667 5.33333V4.66667C10.6667 3.19391 9.4728 2 8.00004 2V2C6.52728 2 5.33337 3.19391 5.33337 4.66667V5.33333" stroke="#222222" stroke-width="2" stroke-linecap="round"/>
<path fill-rule="evenodd" clip-rule="evenodd" d="M2.16835 6.67583C2 7.15694 2 7.75542 2 8.95238C2 10.5483 2 11.3463 2.22447 11.9878C2.62651 13.1368 3.5299 14.0401 4.67888 14.4422C5.32037 14.6667 6.11834 14.6667 7.71429 14.6667H8.28571C9.88166 14.6667 10.6796 14.6667 11.3211 14.4422C12.4701 14.0401 13.3735 13.1368 13.7755 11.9878C14 11.3463 14 10.5483 14 8.95238C14 7.75542 14 7.15694 13.8317 6.67583C13.5301 5.81409 12.8526 5.13655 11.9908 4.83501C11.5097 4.66666 10.9112 4.66666 9.71429 4.66666H6.28571C5.08876 4.66666 4.49028 4.66666 4.00916 4.83501C3.14742 5.13655 2.46989 5.81409 2.16835 6.67583ZM10 9.33333C10 10.0736 9.5978 10.72 9 11.0658V12.6667H7V11.0658C6.4022 10.72 6 10.0736 6 9.33333C6 8.22876 6.89543 7.33333 8 7.33333C9.10457 7.33333 10 8.22876 10 9.33333Z" fill="#222222"/>
</svg>
